<svg width="24" height="24" viewBox="0 0 24 24" fill="none" xmlns="http://www.w3.org/2000/svg">
<path d="M17.6247 10.7809C18.056 10.4359 18.1259 9.80657 17.7809 9.3753C17.4359 8.94404 16.8066 8.87412 16.3753 9.21913L17.6247 10.7809ZM12 14L11.3753 14.7809L12 15.2806L12.6247 14.7809L12 14ZM7.62469 9.21913C7.19343 8.87412 6.56414 8.94404 6.21913 9.3753C5.87412 9.80657 5.94404 10.4359 6.37531 10.7809L7.62469 9.21913ZM16.3753 9.21913L11.3753 13.2191L12.6247 14.7809L17.6247 10.7809L16.3753 9.21913ZM12.6247 13.2191L7.62469 9.21913L6.37531 10.7809L11.3753 14.7809L12.6247 13.2191Z" fill="#AFB2B6"/>
</svg>
