<svg width="186" height="51" viewBox="0 0 186 51" fill="none" xmlns="http://www.w3.org/2000/svg">
<path d="M21.5372 37.33C21.4772 37.36 21.4172 37.375 21.3572 37.375C21.2972 37.375 21.1772 37.375 20.9972 37.375C20.5772 37.375 20.0822 37.3 19.5122 37.15C18.9722 37.03 18.4322 36.865 17.8922 36.655C17.3822 36.475 16.9322 36.265 16.5422 36.025C16.1822 35.785 15.9572 35.575 15.8672 35.395C15.8372 34.975 15.8222 34.54 15.8222 34.09C15.8222 33.64 15.8222 33.205 15.8222 32.785C15.8222 29.425 16.0622 25.915 16.5422 22.255C17.0522 18.595 17.8772 14.635 19.0172 10.375C19.1372 9.955 19.2572 9.43 19.3772 8.8C19.5272 8.14 19.6772 7.435 19.8272 6.685C19.1072 7.255 18.2522 8.17 17.2622 9.43C16.2722 10.66 15.2222 12.13 14.1122 13.84C13.0322 15.52 11.9372 17.38 10.8272 19.42C9.74723 21.43 8.75723 23.485 7.85723 25.585C6.95723 27.655 6.17723 29.71 5.51723 31.75C4.88723 33.79 4.49723 35.68 4.34723 37.42C2.90723 37 1.90223 36.58 1.33223 36.16C0.792227 35.74 0.522227 35.23 0.522227 34.63C0.522227 34.09 0.687227 33.325 1.01723 32.335C1.34723 31.345 1.81223 30.175 2.41223 28.825C3.01223 27.475 3.74723 25.975 4.61723 24.325C5.48723 22.645 6.44723 20.845 7.49723 18.925C8.69723 16.735 9.86723 14.68 11.0072 12.76C12.1772 10.84 13.3172 9.1 14.4272 7.54C15.5372 5.98 16.6172 4.63 17.6672 3.49C18.7472 2.35 19.8122 1.48 20.8622 0.879997C21.2822 0.879997 21.8372 0.984998 22.5272 1.195C23.2472 1.405 23.9372 1.66 24.5972 1.96C25.2872 2.26 25.8872 2.575 26.3972 2.905C26.9372 3.205 27.2372 3.46 27.2972 3.67C26.8772 4.51 26.3822 5.77 25.8122 7.45C25.2422 9.13 24.6572 11.035 24.0572 13.165C23.4872 15.295 22.9322 17.56 22.3922 19.96C21.8822 22.33 21.4772 24.61 21.1772 26.8C21.8672 25.15 22.6622 23.44 23.5622 21.67C24.4922 19.87 25.4672 18.1 26.4872 16.36C27.5072 14.59 28.5422 12.88 29.5922 11.23C30.6722 9.58 31.7222 8.08 32.7422 6.73C33.7622 5.35 34.7072 4.15 35.5772 3.13C36.4772 2.11 37.2722 1.36 37.9622 0.879997C38.3822 0.879997 38.9372 0.984998 39.6272 1.195C40.3472 1.405 41.0372 1.66 41.6972 1.96C42.3872 2.26 42.9872 2.575 43.4972 2.905C44.0372 3.205 44.3372 3.46 44.3972 3.67C43.4372 5.38 42.5972 7.465 41.8772 9.925C41.1572 12.385 40.5422 14.965 40.0322 17.665C39.5522 20.365 39.1772 23.05 38.9072 25.72C38.6672 28.36 38.5472 30.73 38.5472 32.83C38.5472 33.52 38.5472 34.24 38.5472 34.99C38.5472 35.74 38.5772 36.52 38.6372 37.33C38.2172 37.33 37.7072 37.27 37.1072 37.15C36.5372 37.06 35.9672 36.925 35.3972 36.745C34.8572 36.565 34.3622 36.355 33.9122 36.115C33.4622 35.905 33.1472 35.665 32.9672 35.395C32.9372 34.975 32.9222 34.54 32.9222 34.09C32.9222 33.64 32.9222 33.205 32.9222 32.785C32.9222 29.425 33.1622 25.915 33.6422 22.255C34.1522 18.595 34.9772 14.635 36.1172 10.375C36.2372 9.955 36.3722 9.385 36.5222 8.665C36.6722 7.945 36.8222 7.195 36.9722 6.415C36.1322 6.835 35.1722 7.645 34.0922 8.845C33.0422 10.015 31.9622 11.455 30.8522 13.165C29.7722 14.845 28.6922 16.72 27.6122 18.79C26.5622 20.86 25.6022 22.975 24.7322 25.135C23.8922 27.265 23.1722 29.395 22.5722 31.525C22.0022 33.625 21.6572 35.56 21.5372 37.33ZM49.259 35.575C47.549 35.395 46.184 34.645 45.164 33.325C44.144 32.005 43.634 30.325 43.634 28.285C43.634 27.085 43.814 25.84 44.174 24.55C44.534 23.26 45.044 22.015 45.704 20.815C46.364 19.585 47.144 18.43 48.044 17.35C48.944 16.27 49.919 15.34 50.969 14.56C52.619 13.33 54.164 12.715 55.604 12.715C56.564 13.225 57.509 14.29 58.439 15.91C58.589 15.91 58.724 15.91 58.844 15.91C58.964 15.88 59.099 15.865 59.249 15.865C60.839 15.865 61.634 17.275 61.634 20.095C61.634 21.985 61.319 23.785 60.689 25.495C60.089 27.175 59.234 28.705 58.124 30.085C57.044 31.465 55.739 32.635 54.209 33.595C52.709 34.525 51.059 35.185 49.259 35.575ZM51.554 21.4C51.044 22.09 50.564 22.84 50.114 23.65C49.664 24.46 49.274 25.285 48.944 26.125C48.614 26.935 48.359 27.73 48.179 28.51C47.999 29.26 47.909 29.935 47.909 30.535C47.909 31.255 48.029 31.945 48.269 32.605C48.509 33.265 48.779 33.64 49.079 33.73C50.429 33.43 51.659 32.875 52.769 32.065C53.909 31.225 54.884 30.19 55.694 28.96C56.534 27.73 57.179 26.335 57.629 24.775C58.109 23.215 58.349 21.55 58.349 19.78C58.349 19 58.304 18.385 58.214 17.935C58.124 17.485 57.974 17.095 57.764 16.765C56.444 17.155 55.259 17.785 54.209 18.655C53.189 19.525 52.304 20.44 51.554 21.4ZM65.9796 18.07C65.9796 17.53 66.0096 17.02 66.0696 16.54C66.1596 16.06 66.3246 15.655 66.5646 15.325C66.8046 14.965 67.1346 14.695 67.5546 14.515C67.9746 14.305 68.5296 14.2 69.2196 14.2C69.6396 14.2 70.1046 14.245 70.6146 14.335C71.1546 14.425 71.5446 14.59 71.7846 14.83C71.6646 15.34 71.5596 15.79 71.4696 16.18C71.4096 16.57 71.3496 17.005 71.2896 17.485C71.2596 17.935 71.2296 18.49 71.1996 19.15C71.1696 19.78 71.1396 20.605 71.1096 21.625C71.0496 23.665 70.9446 25.495 70.7946 27.115C70.6746 28.705 70.3746 30.295 69.8946 31.885C69.8946 32.005 69.9396 32.065 70.0296 32.065C70.4796 31.735 70.9896 31.255 71.5596 30.625C72.1296 29.995 72.7296 29.29 73.3596 28.51C73.9896 27.7 74.6196 26.845 75.2496 25.945C75.8796 25.045 76.4646 24.16 77.0046 23.29C77.7246 22.03 78.5196 20.455 79.3896 18.565C80.2596 16.675 80.9796 14.65 81.5496 12.49C81.7296 12.49 81.9546 12.535 82.2246 12.625C82.5246 12.685 82.8096 12.775 83.0796 12.895C83.3797 12.985 83.6347 13.09 83.8446 13.21C84.0847 13.33 84.2496 13.435 84.3396 13.525C84.2796 14.815 83.9646 16.135 83.3946 17.485C82.8546 18.835 82.1946 20.14 81.4146 21.4C80.6346 22.66 79.8096 23.845 78.9396 24.955C78.0696 26.065 77.2746 27.025 76.5546 27.835C75.1146 29.515 73.6596 31.015 72.1896 32.335C70.7496 33.655 69.0246 34.93 67.0146 36.16C66.2346 35.86 65.6196 35.455 65.1696 34.945C64.7196 34.465 64.4946 33.955 64.4946 33.415C64.4946 33.055 64.5696 32.65 64.7196 32.2C64.8996 31.72 65.0946 31.12 65.3046 30.4C65.5146 29.65 65.6946 28.72 65.8446 27.61C66.0246 26.5 66.1146 25.09 66.1146 23.38C66.1146 22.39 66.0846 21.4 66.0246 20.41C65.9946 19.39 65.9796 18.61 65.9796 18.07ZM83.7205 30.985C83.7205 30.715 83.7355 30.385 83.7655 29.995C83.8255 29.575 83.9155 29.035 84.0355 28.375C84.1555 27.685 84.3055 26.86 84.4855 25.9C84.6955 24.94 84.9505 23.785 85.2505 22.435C85.3105 22.135 85.4455 21.655 85.6555 20.995C85.8655 20.335 86.1355 19.645 86.4655 18.925C86.8255 18.175 87.2455 17.455 87.7255 16.765C88.2355 16.075 88.8355 15.565 89.5255 15.235C90.0355 15.355 90.7105 15.67 91.5505 16.18C92.3905 16.66 93.1105 17.335 93.7105 18.205C93.0205 18.985 92.4355 19.765 91.9555 20.545C91.5055 21.325 91.0855 22.135 90.6955 22.975C90.3355 23.815 89.9905 24.685 89.6605 25.585C89.3605 26.485 89.0155 27.43 88.6255 28.42C88.2955 29.26 87.9955 30.13 87.7255 31.03C87.4555 31.9 87.3055 32.665 87.2755 33.325C87.2755 33.865 87.2605 34.24 87.2305 34.45C87.2305 34.69 87.1555 34.81 87.0055 34.81C86.8855 34.81 86.6455 34.735 86.2855 34.585C85.9255 34.435 85.5505 34.21 85.1605 33.91C84.8005 33.58 84.4705 33.175 84.1705 32.695C83.8705 32.215 83.7205 31.645 83.7205 30.985ZM92.3155 11.455C92.3155 11.275 92.3605 11.005 92.4505 10.645C92.3005 10.495 92.1655 10.27 92.0455 9.97C91.9555 9.67 91.9105 9.4 91.9105 9.16C91.9105 8.89 91.9405 8.53 92.0005 8.08C92.0905 7.6 92.1955 7.09 92.3155 6.55C92.4355 6.01 92.5855 5.455 92.7655 4.885C92.9455 4.285 93.1255 3.745 93.3055 3.265C93.6655 3.265 94.1005 3.37 94.6105 3.58C95.1505 3.76 95.6905 4.015 96.2305 4.345C96.7705 4.645 97.2655 4.99 97.7155 5.38C98.1655 5.74 98.5105 6.085 98.7505 6.415C98.4205 6.745 97.9855 7.21 97.4455 7.81C96.9055 8.38 96.3805 8.995 95.8705 9.655C95.3605 10.285 94.8955 10.885 94.4755 11.455C94.0555 12.025 93.7855 12.43 93.6655 12.67C93.3055 12.61 92.9905 12.46 92.7205 12.22C92.4505 11.95 92.3155 11.695 92.3155 11.455ZM110.42 15.37C110.3 17.23 109.97 18.835 109.43 20.185C108.89 21.505 108.11 22.675 107.09 23.695C106.1 24.685 104.885 25.585 103.445 26.395C102.005 27.205 100.325 27.985 98.4053 28.735C98.4053 28.915 98.3903 29.11 98.3603 29.32C98.3603 29.5 98.3603 29.695 98.3603 29.905C98.3603 30.295 98.3903 30.7 98.4503 31.12C98.5103 31.54 98.6153 31.93 98.7653 32.29C98.9153 32.65 99.1253 32.95 99.3953 33.19C99.6653 33.4 100.01 33.505 100.43 33.505C101.24 33.505 102.035 33.325 102.815 32.965C103.595 32.605 104.33 32.17 105.02 31.66C105.74 31.12 106.4 30.55 107 29.95C107.63 29.32 108.185 28.75 108.665 28.24C108.965 28.51 109.22 28.765 109.43 29.005C108.08 30.805 106.595 32.305 104.975 33.505C103.385 34.675 101.87 35.425 100.43 35.755C98.3603 35.515 96.7403 34.765 95.5703 33.505C94.4303 32.215 93.8603 30.67 93.8603 28.87C93.8603 27.64 94.0253 26.395 94.3553 25.135C94.7153 23.845 95.1953 22.615 95.7953 21.445C96.4253 20.245 97.1453 19.12 97.9553 18.07C98.7953 17.02 99.6803 16.105 100.61 15.325C101.57 14.545 102.545 13.93 103.535 13.48C104.555 13.03 105.56 12.805 106.55 12.805C107.93 12.985 109.22 13.84 110.42 15.37ZM107.315 16.855C106.505 16.975 105.665 17.305 104.795 17.845C103.925 18.385 103.1 19.105 102.32 20.005C101.57 20.905 100.88 21.955 100.25 23.155C99.6203 24.355 99.1253 25.645 98.7653 27.025C101.165 25.825 103.16 24.355 104.75 22.615C106.34 20.845 107.195 18.925 107.315 16.855Z" fill="#EE48BF"/>
<path d="M133.429 1.24C133.999 1.48 134.584 1.795 135.184 2.185C135.784 2.545 136.339 2.92 136.849 3.31C137.359 3.7 137.779 4.09 138.109 4.48C138.469 4.84 138.664 5.14 138.694 5.38C138.184 5.26 137.674 5.185 137.164 5.155C136.654 5.095 136.189 5.065 135.769 5.065C134.419 5.065 133.069 5.395 131.719 6.055C130.399 6.715 129.139 7.615 127.939 8.755C126.739 9.895 125.629 11.23 124.609 12.76C123.589 14.29 122.704 15.925 121.954 17.665C121.234 19.405 120.664 21.205 120.244 23.065C119.824 24.925 119.614 26.755 119.614 28.555C119.614 30.895 120.004 32.635 120.784 33.775C121.564 34.915 122.704 35.485 124.204 35.485C124.924 35.485 125.704 35.335 126.544 35.035C127.384 34.765 128.239 34.375 129.109 33.865C129.979 33.355 130.834 32.74 131.674 32.02C132.514 31.3 133.294 30.505 134.014 29.635C135.064 28.375 136.009 26.95 136.849 25.36C137.689 23.74 138.394 22.03 138.964 20.23C139.564 18.43 140.014 16.585 140.314 14.695C140.644 12.775 140.809 10.9 140.809 9.07C140.809 8.35 140.794 7.75 140.764 7.27C140.734 6.76 140.689 6.34 140.629 6.01C140.599 5.65 140.569 5.365 140.539 5.155C140.509 4.945 140.479 4.765 140.449 4.615C140.809 4.795 141.199 5.02 141.619 5.29C142.069 5.53 142.474 5.905 142.834 6.415C143.224 6.895 143.539 7.54 143.779 8.35C144.049 9.16 144.184 10.21 144.184 11.5C144.184 13.6 143.929 15.67 143.419 17.71C142.939 19.72 142.249 21.64 141.349 23.47C140.479 25.3 139.444 27.01 138.244 28.6C137.044 30.19 135.754 31.585 134.374 32.785C132.574 34.375 130.654 35.605 128.614 36.475C126.574 37.345 124.609 37.78 122.719 37.78C119.959 37.78 117.844 36.895 116.374 35.125C114.934 33.385 114.214 30.805 114.214 27.385C114.214 25.555 114.409 23.62 114.799 21.58C115.219 19.54 115.789 17.53 116.509 15.55C117.259 13.57 118.144 11.695 119.164 9.925C120.184 8.125 121.294 6.55 122.494 5.2C123.724 3.82 125.029 2.725 126.409 1.915C127.819 1.105 129.259 0.7 130.729 0.7C131.209 0.7 131.659 0.744999 132.079 0.834998C132.499 0.894999 132.949 1.03 133.429 1.24ZM141.123 48.895C140.703 48.775 140.463 48.325 140.403 47.545C140.283 47.155 140.193 46.69 140.133 46.15C140.103 45.61 140.088 44.995 140.088 44.305C140.088 43.675 140.193 42.805 140.403 41.695C140.613 40.615 140.898 39.385 141.258 38.005C141.648 36.625 142.113 35.14 142.653 33.55C143.193 31.93 143.793 30.295 144.453 28.645C145.263 26.575 145.968 24.79 146.568 23.29C147.168 21.76 147.663 20.44 148.053 19.33C148.473 18.22 148.803 17.305 149.043 16.585C149.313 15.865 149.523 15.25 149.673 14.74C149.793 14.38 149.973 13.945 150.213 13.435C150.453 12.925 150.723 12.415 151.023 11.905C151.353 11.365 151.683 10.87 152.013 10.42C152.343 9.94 152.643 9.58 152.913 9.34C153.963 9.49 154.953 9.76 155.883 10.15C156.813 10.54 157.383 10.915 157.593 11.275C157.173 11.665 156.693 12.28 156.153 13.12C155.613 13.93 155.088 14.83 154.578 15.82C154.068 16.78 153.603 17.77 153.183 18.79C152.763 19.81 152.448 20.71 152.238 21.49C152.538 20.98 152.928 20.425 153.408 19.825C153.888 19.225 154.623 18.4 155.613 17.35C156.723 16.21 157.758 15.34 158.718 14.74C159.708 14.11 160.563 13.795 161.283 13.795C162.423 13.795 163.353 14.11 164.073 14.74C164.823 15.37 165.198 16.18 165.198 17.17C165.198 19.33 164.838 21.475 164.118 23.605C163.398 25.705 162.363 27.61 161.013 29.32C160.503 29.98 159.903 30.61 159.213 31.21C158.523 31.81 157.803 32.35 157.053 32.83C156.303 33.28 155.568 33.64 154.848 33.91C154.128 34.18 153.483 34.315 152.913 34.315C152.373 34.315 151.893 34.21 151.473 34C151.083 33.76 150.813 33.475 150.663 33.145C151.833 32.455 152.973 31.495 154.083 30.265C155.193 29.035 156.213 27.625 157.143 26.035C158.103 24.415 158.928 22.675 159.618 20.815C160.338 18.955 160.878 17.065 161.238 15.145C160.098 15.745 159.063 16.405 158.133 17.125C157.233 17.815 156.333 18.73 155.433 19.87C154.353 21.19 153.498 22.255 152.868 23.065C152.238 23.875 151.713 24.565 151.293 25.135C150.903 25.705 150.573 26.245 150.303 26.755C150.063 27.235 149.793 27.835 149.493 28.555C149.073 29.515 148.578 30.79 148.008 32.38C147.468 33.94 146.898 35.695 146.298 37.645C145.728 39.595 145.143 41.665 144.543 43.855C143.973 46.075 143.418 48.28 142.878 50.47C142.548 50.41 142.263 50.17 142.023 49.75C141.783 49.48 141.603 49.285 141.483 49.165C141.393 49.045 141.273 48.955 141.123 48.895ZM182.345 15.82C182.645 15.82 182.99 15.88 183.38 16C183.8 16.09 184.175 16.225 184.505 16.405C184.835 16.555 185.105 16.72 185.315 16.9C185.555 17.08 185.675 17.245 185.675 17.395C185.075 18.655 184.52 19.93 184.01 21.22C183.5 22.48 183.065 23.695 182.705 24.865C182.345 26.035 182.06 27.13 181.85 28.15C181.67 29.17 181.58 30.055 181.58 30.805C181.58 31.645 181.67 32.35 181.85 32.92C182.03 33.46 182.33 33.85 182.75 34.09C182.39 34.33 181.925 34.525 181.355 34.675C180.785 34.825 180.275 34.9 179.825 34.9C178.205 34.9 177.395 33.79 177.395 31.57C177.395 29.86 177.965 27.52 179.105 24.55C178.505 25.93 177.815 27.235 177.035 28.465C176.255 29.665 175.46 30.73 174.65 31.66C173.84 32.59 173.015 33.355 172.175 33.955C171.365 34.525 170.615 34.87 169.925 34.99C168.815 34.93 167.915 34.405 167.225 33.415C166.535 32.395 166.19 31.105 166.19 29.545C166.19 27.865 166.55 26.095 167.27 24.235C167.99 22.375 168.905 20.65 170.015 19.06C171.155 17.47 172.385 16.15 173.705 15.1C175.025 14.02 176.3 13.45 177.53 13.39C177.83 13.48 178.16 13.66 178.52 13.93C178.91 14.2 179.27 14.515 179.6 14.875C179.96 15.235 180.26 15.61 180.5 16C180.74 16.36 180.875 16.675 180.905 16.945C179.705 17.125 178.46 17.71 177.17 18.7C175.91 19.69 174.755 20.89 173.705 22.3C172.685 23.68 171.845 25.165 171.185 26.755C170.525 28.345 170.195 29.83 170.195 31.21C170.195 31.78 170.405 32.14 170.825 32.29C171.695 32.11 172.7 31.375 173.84 30.085C174.98 28.765 176.36 26.74 177.98 24.01C178.28 23.47 178.61 22.87 178.97 22.21C179.36 21.55 179.75 20.86 180.14 20.14C180.53 19.42 180.905 18.7 181.265 17.98C181.655 17.23 182.015 16.51 182.345 15.82Z" fill="#671DE0"/>
</svg>
