<svg width="145" height="39" viewBox="0 0 145 39" fill="none" xmlns="http://www.w3.org/2000/svg">
<path d="M16.9734 28.59C16.9267 28.6133 16.8801 28.625 16.8334 28.625C16.7867 28.625 16.6934 28.625 16.5534 28.625C16.2267 28.625 15.8417 28.5667 15.3984 28.45C14.9784 28.3567 14.5584 28.2283 14.1384 28.065C13.7417 27.925 13.3917 27.7617 13.0884 27.575C12.8084 27.3883 12.6334 27.225 12.5634 27.085C12.5401 26.7583 12.5284 26.42 12.5284 26.07C12.5284 25.72 12.5284 25.3817 12.5284 25.055C12.5284 22.4417 12.7151 19.7117 13.0884 16.865C13.4851 14.0183 14.1267 10.9383 15.0134 7.625C15.1067 7.29833 15.2001 6.89 15.2934 6.4C15.4101 5.88667 15.5267 5.33833 15.6434 4.755C15.0834 5.19833 14.4184 5.91 13.6484 6.89C12.8784 7.84667 12.0617 8.99 11.1984 10.32C10.3584 11.6267 9.50673 13.0733 8.6434 14.66C7.8034 16.2233 7.0334 17.8217 6.3334 19.455C5.6334 21.065 5.02673 22.6633 4.5134 24.25C4.0234 25.8367 3.72007 27.3067 3.6034 28.66C2.4834 28.3333 1.70173 28.0067 1.2584 27.68C0.838399 27.3533 0.628399 26.9567 0.628399 26.49C0.628399 26.07 0.756732 25.475 1.0134 24.705C1.27007 23.935 1.63173 23.025 2.0984 21.975C2.56507 20.925 3.13673 19.7583 3.8134 18.475C4.49007 17.1683 5.23673 15.7683 6.0534 14.275C6.98673 12.5717 7.89673 10.9733 8.7834 9.48C9.6934 7.98667 10.5801 6.63333 11.4434 5.42C12.3067 4.20667 13.1467 3.15667 13.9634 2.27C14.8034 1.38333 15.6317 0.706665 16.4484 0.239998C16.7751 0.239998 17.2067 0.321665 17.7434 0.484999C18.3034 0.648332 18.8401 0.846665 19.3534 1.08C19.8901 1.31333 20.3567 1.55833 20.7534 1.815C21.1734 2.04833 21.4067 2.24667 21.4534 2.41C21.1267 3.06333 20.7417 4.04333 20.2984 5.35C19.8551 6.65667 19.4001 8.13833 18.9334 9.795C18.4901 11.4517 18.0584 13.2133 17.6384 15.08C17.2417 16.9233 16.9267 18.6967 16.6934 20.4C17.2301 19.1167 17.8484 17.7867 18.5484 16.41C19.2717 15.01 20.0301 13.6333 20.8234 12.28C21.6167 10.9033 22.4217 9.57333 23.2384 8.29C24.0784 7.00667 24.8951 5.84 25.6884 4.79C26.4817 3.71667 27.2167 2.78333 27.8934 1.99C28.5934 1.19667 29.2117 0.613332 29.7484 0.239998C30.0751 0.239998 30.5067 0.321665 31.0434 0.484999C31.6034 0.648332 32.1401 0.846665 32.6534 1.08C33.1901 1.31333 33.6567 1.55833 34.0534 1.815C34.4734 2.04833 34.7067 2.24667 34.7534 2.41C34.0067 3.74 33.3534 5.36167 32.7934 7.275C32.2334 9.18833 31.7551 11.195 31.3584 13.295C30.9851 15.395 30.6934 17.4833 30.4834 19.56C30.2967 21.6133 30.2034 23.4567 30.2034 25.09C30.2034 25.6267 30.2034 26.1867 30.2034 26.77C30.2034 27.3533 30.2267 27.96 30.2734 28.59C29.9467 28.59 29.5501 28.5433 29.0834 28.45C28.6401 28.38 28.1967 28.275 27.7534 28.135C27.3334 27.995 26.9484 27.8317 26.5984 27.645C26.2484 27.4817 26.0034 27.295 25.8634 27.085C25.8401 26.7583 25.8284 26.42 25.8284 26.07C25.8284 25.72 25.8284 25.3817 25.8284 25.055C25.8284 22.4417 26.0151 19.7117 26.3884 16.865C26.7851 14.0183 27.4267 10.9383 28.3134 7.625C28.4067 7.29833 28.5117 6.855 28.6284 6.295C28.7451 5.735 28.8617 5.15167 28.9784 4.545C28.3251 4.87167 27.5784 5.50167 26.7384 6.435C25.9217 7.345 25.0817 8.465 24.2184 9.795C23.3784 11.1017 22.5384 12.56 21.6984 14.17C20.8817 15.78 20.1351 17.425 19.4584 19.105C18.8051 20.7617 18.2451 22.4183 17.7784 24.075C17.3351 25.7083 17.0667 27.2133 16.9734 28.59ZM38.5348 27.225C37.2048 27.085 36.1431 26.5017 35.3498 25.475C34.5564 24.4483 34.1598 23.1417 34.1598 21.555C34.1598 20.6217 34.2998 19.6533 34.5798 18.65C34.8598 17.6467 35.2564 16.6783 35.7698 15.745C36.2831 14.7883 36.8898 13.89 37.5898 13.05C38.2898 12.21 39.0481 11.4867 39.8648 10.88C41.1481 9.92333 42.3498 9.445 43.4698 9.445C44.2164 9.84167 44.9514 10.67 45.6748 11.93C45.7914 11.93 45.8964 11.93 45.9898 11.93C46.0831 11.9067 46.1881 11.895 46.3048 11.895C47.5414 11.895 48.1598 12.9917 48.1598 15.185C48.1598 16.655 47.9148 18.055 47.4248 19.385C46.9581 20.6917 46.2931 21.8817 45.4298 22.955C44.5898 24.0283 43.5748 24.9383 42.3848 25.685C41.2181 26.4083 39.9348 26.9217 38.5348 27.225ZM40.3198 16.2C39.9231 16.7367 39.5498 17.32 39.1998 17.95C38.8498 18.58 38.5464 19.2217 38.2898 19.875C38.0331 20.505 37.8348 21.1233 37.6948 21.73C37.5548 22.3133 37.4848 22.8383 37.4848 23.305C37.4848 23.865 37.5781 24.4017 37.7648 24.915C37.9514 25.4283 38.1614 25.72 38.3948 25.79C39.4448 25.5567 40.4014 25.125 41.2648 24.495C42.1514 23.8417 42.9098 23.0367 43.5398 22.08C44.1931 21.1233 44.6948 20.0383 45.0448 18.825C45.4181 17.6117 45.6048 16.3167 45.6048 14.94C45.6048 14.3333 45.5698 13.855 45.4998 13.505C45.4298 13.155 45.3131 12.8517 45.1498 12.595C44.1231 12.8983 43.2014 13.3883 42.3848 14.065C41.5914 14.7417 40.9031 15.4533 40.3198 16.2ZM51.5397 13.61C51.5397 13.19 51.5631 12.7933 51.6097 12.42C51.6797 12.0467 51.8081 11.7317 51.9947 11.475C52.1814 11.195 52.4381 10.985 52.7647 10.845C53.0914 10.6817 53.5231 10.6 54.0597 10.6C54.3864 10.6 54.7481 10.635 55.1447 10.705C55.5647 10.775 55.8681 10.9033 56.0547 11.09C55.9614 11.4867 55.8797 11.8367 55.8097 12.14C55.7631 12.4433 55.7164 12.7817 55.6697 13.155C55.6464 13.505 55.6231 13.9367 55.5997 14.45C55.5764 14.94 55.5531 15.5817 55.5297 16.375C55.4831 17.9617 55.4014 19.385 55.2847 20.645C55.1914 21.8817 54.9581 23.1183 54.5847 24.355C54.5847 24.4483 54.6197 24.495 54.6897 24.495C55.0397 24.2383 55.4364 23.865 55.8797 23.375C56.3231 22.885 56.7897 22.3367 57.2797 21.73C57.7697 21.1 58.2597 20.435 58.7497 19.735C59.2397 19.035 59.6947 18.3467 60.1147 17.67C60.6747 16.69 61.2931 15.465 61.9697 13.995C62.6464 12.525 63.2064 10.95 63.6497 9.27C63.7897 9.27 63.9647 9.305 64.1747 9.375C64.4081 9.42167 64.6297 9.49167 64.8397 9.585C65.0731 9.655 65.2714 9.73667 65.4347 9.83C65.6214 9.92333 65.7497 10.005 65.8197 10.075C65.7731 11.0783 65.5281 12.105 65.0847 13.155C64.6647 14.205 64.1514 15.22 63.5447 16.2C62.9381 17.18 62.2964 18.1017 61.6197 18.965C60.9431 19.8283 60.3247 20.575 59.7647 21.205C58.6447 22.5117 57.5131 23.6783 56.3697 24.705C55.2497 25.7317 53.9081 26.7233 52.3447 27.68C51.7381 27.4467 51.2597 27.1317 50.9097 26.735C50.5597 26.3617 50.3847 25.965 50.3847 25.545C50.3847 25.265 50.4431 24.95 50.5597 24.6C50.6997 24.2267 50.8514 23.76 51.0147 23.2C51.1781 22.6167 51.3181 21.8933 51.4347 21.03C51.5747 20.1667 51.6447 19.07 51.6447 17.74C51.6447 16.97 51.6214 16.2 51.5747 15.43C51.5514 14.6367 51.5397 14.03 51.5397 13.61ZM65.3382 23.655C65.3382 23.445 65.3499 23.1883 65.3732 22.885C65.4199 22.5583 65.4899 22.1383 65.5832 21.625C65.6765 21.0883 65.7932 20.4467 65.9332 19.7C66.0965 18.9533 66.2949 18.055 66.5282 17.005C66.5749 16.7717 66.6799 16.3983 66.8432 15.885C67.0065 15.3717 67.2165 14.835 67.4732 14.275C67.7532 13.6917 68.0799 13.1317 68.4532 12.595C68.8499 12.0583 69.3165 11.6617 69.8532 11.405C70.2499 11.4983 70.7749 11.7433 71.4282 12.14C72.0815 12.5133 72.6415 13.0383 73.1082 13.715C72.5715 14.3217 72.1165 14.9283 71.7432 15.535C71.3932 16.1417 71.0665 16.7717 70.7632 17.425C70.4832 18.0783 70.2149 18.755 69.9582 19.455C69.7249 20.155 69.4565 20.89 69.1532 21.66C68.8965 22.3133 68.6632 22.99 68.4532 23.69C68.2432 24.3667 68.1265 24.9617 68.1032 25.475C68.1032 25.895 68.0915 26.1867 68.0682 26.35C68.0682 26.5367 68.0099 26.63 67.8932 26.63C67.7999 26.63 67.6132 26.5717 67.3332 26.455C67.0532 26.3383 66.7615 26.1633 66.4582 25.93C66.1782 25.6733 65.9215 25.3583 65.6882 24.985C65.4549 24.6117 65.3382 24.1683 65.3382 23.655ZM72.0232 8.465C72.0232 8.325 72.0582 8.115 72.1282 7.835C72.0115 7.71833 71.9065 7.54333 71.8132 7.31C71.7432 7.07667 71.7082 6.86667 71.7082 6.68C71.7082 6.47 71.7315 6.19 71.7782 5.84C71.8482 5.46667 71.9299 5.07 72.0232 4.65C72.1165 4.23 72.2332 3.79833 72.3732 3.355C72.5132 2.88833 72.6532 2.46833 72.7932 2.095C73.0732 2.095 73.4115 2.17667 73.8082 2.34C74.2282 2.48 74.6482 2.67833 75.0682 2.935C75.4882 3.16833 75.8732 3.43667 76.2232 3.74C76.5732 4.02 76.8415 4.28833 77.0282 4.545C76.7715 4.80166 76.4332 5.16333 76.0132 5.63C75.5932 6.07333 75.1849 6.55167 74.7882 7.065C74.3915 7.555 74.0299 8.02167 73.7032 8.465C73.3765 8.90833 73.1665 9.22333 73.0732 9.41C72.7932 9.36333 72.5482 9.24667 72.3382 9.06C72.1282 8.85 72.0232 8.65167 72.0232 8.465ZM86.1047 11.51C86.0114 12.9567 85.7547 14.205 85.3347 15.255C84.9147 16.2817 84.308 17.1917 83.5147 17.985C82.7447 18.755 81.7997 19.455 80.6797 20.085C79.5597 20.715 78.253 21.3217 76.7597 21.905C76.7597 22.045 76.748 22.1967 76.7247 22.36C76.7247 22.5 76.7247 22.6517 76.7247 22.815C76.7247 23.1183 76.748 23.4333 76.7947 23.76C76.8414 24.0867 76.923 24.39 77.0397 24.67C77.1564 24.95 77.3197 25.1833 77.5297 25.37C77.7397 25.5333 78.008 25.615 78.3347 25.615C78.9647 25.615 79.583 25.475 80.1897 25.195C80.7964 24.915 81.368 24.5767 81.9047 24.18C82.4647 23.76 82.978 23.3167 83.4447 22.85C83.9347 22.36 84.3664 21.9167 84.7397 21.52C84.973 21.73 85.1714 21.9283 85.3347 22.115C84.2847 23.515 83.1297 24.6817 81.8697 25.615C80.633 26.525 79.4547 27.1083 78.3347 27.365C76.7247 27.1783 75.4647 26.595 74.5547 25.615C73.668 24.6117 73.2247 23.41 73.2247 22.01C73.2247 21.0533 73.353 20.085 73.6097 19.105C73.8897 18.1017 74.263 17.145 74.7297 16.235C75.2197 15.3017 75.7797 14.4267 76.4097 13.61C77.063 12.7933 77.7514 12.0817 78.4747 11.475C79.2214 10.8683 79.9797 10.39 80.7497 10.04C81.543 9.69 82.3247 9.515 83.0947 9.515C84.168 9.655 85.1714 10.32 86.1047 11.51ZM83.6897 12.665C83.0597 12.7583 82.4064 13.015 81.7297 13.435C81.053 13.855 80.4114 14.415 79.8047 15.115C79.2214 15.815 78.6847 16.6317 78.1947 17.565C77.7047 18.4983 77.3197 19.5017 77.0397 20.575C78.9064 19.6417 80.458 18.4983 81.6947 17.145C82.9314 15.7683 83.5964 14.275 83.6897 12.665Z" fill="#EE48BF"/>
<path d="M104 0.519998C104.443 0.706665 104.898 0.951666 105.365 1.255C105.832 1.535 106.263 1.82666 106.66 2.13C107.057 2.43333 107.383 2.73667 107.64 3.04C107.92 3.32 108.072 3.55333 108.095 3.74C107.698 3.64667 107.302 3.58833 106.905 3.565C106.508 3.51833 106.147 3.495 105.82 3.495C104.77 3.495 103.72 3.75167 102.67 4.265C101.643 4.77833 100.663 5.47833 99.7301 6.365C98.7967 7.25167 97.9334 8.29 97.1401 9.48C96.3467 10.67 95.6584 11.9417 95.0751 13.295C94.5151 14.6483 94.0717 16.0483 93.7451 17.495C93.4184 18.9417 93.2551 20.365 93.2551 21.765C93.2551 23.585 93.5584 24.9383 94.1651 25.825C94.7717 26.7117 95.6584 27.155 96.8251 27.155C97.3851 27.155 97.9917 27.0383 98.6451 26.805C99.2984 26.595 99.9634 26.2917 100.64 25.895C101.317 25.4983 101.982 25.02 102.635 24.46C103.288 23.9 103.895 23.2817 104.455 22.605C105.272 21.625 106.007 20.5167 106.66 19.28C107.313 18.02 107.862 16.69 108.305 15.29C108.772 13.89 109.122 12.455 109.355 10.985C109.612 9.49167 109.74 8.03333 109.74 6.61C109.74 6.05 109.728 5.58333 109.705 5.21C109.682 4.81333 109.647 4.48667 109.6 4.23C109.577 3.95 109.553 3.72833 109.53 3.565C109.507 3.40167 109.483 3.26167 109.46 3.145C109.74 3.285 110.043 3.46 110.37 3.67C110.72 3.85667 111.035 4.14833 111.315 4.545C111.618 4.91833 111.863 5.42 112.05 6.05C112.26 6.68 112.365 7.49667 112.365 8.5C112.365 10.1333 112.167 11.7433 111.77 13.33C111.397 14.8933 110.86 16.3867 110.16 17.81C109.483 19.2333 108.678 20.5633 107.745 21.8C106.812 23.0367 105.808 24.1217 104.735 25.055C103.335 26.2917 101.842 27.2483 100.255 27.925C98.6684 28.6017 97.1401 28.94 95.6701 28.94C93.5234 28.94 91.8784 28.2517 90.7351 26.875C89.6151 25.5217 89.0551 23.515 89.0551 20.855C89.0551 19.4317 89.2067 17.9267 89.5101 16.34C89.8367 14.7533 90.2801 13.19 90.8401 11.65C91.4234 10.11 92.1117 8.65167 92.9051 7.275C93.6984 5.875 94.5617 4.65 95.4951 3.6C96.4517 2.52666 97.4667 1.675 98.5401 1.045C99.6367 0.414999 100.757 0.0999997 101.9 0.0999997C102.273 0.0999997 102.623 0.134999 102.95 0.204998C103.277 0.251666 103.627 0.356666 104 0.519998ZM109.985 37.585C109.658 37.4917 109.471 37.1417 109.425 36.535C109.331 36.2317 109.261 35.87 109.215 35.45C109.191 35.03 109.18 34.5517 109.18 34.015C109.18 33.525 109.261 32.8483 109.425 31.985C109.588 31.145 109.81 30.1883 110.09 29.115C110.393 28.0417 110.755 26.8867 111.175 25.65C111.595 24.39 112.061 23.1183 112.575 21.835C113.205 20.225 113.753 18.8367 114.22 17.67C114.686 16.48 115.071 15.4533 115.375 14.59C115.701 13.7267 115.958 13.015 116.145 12.455C116.355 11.895 116.518 11.4167 116.635 11.02C116.728 10.74 116.868 10.4017 117.055 10.005C117.241 9.60833 117.451 9.21167 117.685 8.815C117.941 8.395 118.198 8.01 118.455 7.66C118.711 7.28667 118.945 7.00667 119.155 6.82C119.971 6.93667 120.741 7.14667 121.465 7.45C122.188 7.75333 122.631 8.045 122.795 8.325C122.468 8.62833 122.095 9.10667 121.675 9.76C121.255 10.39 120.846 11.09 120.45 11.86C120.053 12.6067 119.691 13.3767 119.365 14.17C119.038 14.9633 118.793 15.6633 118.63 16.27C118.863 15.8733 119.166 15.4417 119.54 14.975C119.913 14.5083 120.485 13.8667 121.255 13.05C122.118 12.1633 122.923 11.4867 123.67 11.02C124.44 10.53 125.105 10.285 125.665 10.285C126.551 10.285 127.275 10.53 127.835 11.02C128.418 11.51 128.71 12.14 128.71 12.91C128.71 14.59 128.43 16.2583 127.87 17.915C127.31 19.5483 126.505 21.03 125.455 22.36C125.058 22.8733 124.591 23.3633 124.055 23.83C123.518 24.2967 122.958 24.7167 122.375 25.09C121.791 25.44 121.22 25.72 120.66 25.93C120.1 26.14 119.598 26.245 119.155 26.245C118.735 26.245 118.361 26.1633 118.035 26C117.731 25.8133 117.521 25.5917 117.405 25.335C118.315 24.7983 119.201 24.0517 120.065 23.095C120.928 22.1383 121.721 21.0417 122.445 19.805C123.191 18.545 123.833 17.1917 124.37 15.745C124.93 14.2983 125.35 12.8283 125.63 11.335C124.743 11.8017 123.938 12.315 123.215 12.875C122.515 13.4117 121.815 14.1233 121.115 15.01C120.275 16.0367 119.61 16.865 119.12 17.495C118.63 18.125 118.221 18.6617 117.895 19.105C117.591 19.5483 117.335 19.9683 117.125 20.365C116.938 20.7383 116.728 21.205 116.495 21.765C116.168 22.5117 115.783 23.5033 115.34 24.74C114.92 25.9533 114.476 27.3183 114.01 28.835C113.566 30.3517 113.111 31.9617 112.645 33.665C112.201 35.3917 111.77 37.1067 111.35 38.81C111.093 38.7633 110.871 38.5767 110.685 38.25C110.498 38.04 110.358 37.8883 110.265 37.795C110.195 37.7017 110.101 37.6317 109.985 37.585ZM142.046 11.86C142.28 11.86 142.548 11.9067 142.851 12C143.178 12.07 143.47 12.175 143.726 12.315C143.983 12.4317 144.193 12.56 144.356 12.7C144.543 12.84 144.636 12.9683 144.636 13.085C144.17 14.065 143.738 15.0567 143.341 16.06C142.945 17.04 142.606 17.985 142.326 18.895C142.046 19.805 141.825 20.6567 141.661 21.45C141.521 22.2433 141.451 22.9317 141.451 23.515C141.451 24.1683 141.521 24.7167 141.661 25.16C141.801 25.58 142.035 25.8833 142.361 26.07C142.081 26.2567 141.72 26.4083 141.276 26.525C140.833 26.6417 140.436 26.7 140.086 26.7C138.826 26.7 138.196 25.8367 138.196 24.11C138.196 22.78 138.64 20.96 139.526 18.65C139.06 19.7233 138.523 20.7383 137.916 21.695C137.31 22.6283 136.691 23.4567 136.061 24.18C135.431 24.9033 134.79 25.4983 134.136 25.965C133.506 26.4083 132.923 26.6767 132.386 26.77C131.523 26.7233 130.823 26.315 130.286 25.545C129.75 24.7517 129.481 23.7483 129.481 22.535C129.481 21.2283 129.761 19.8517 130.321 18.405C130.881 16.9583 131.593 15.6167 132.456 14.38C133.343 13.1433 134.3 12.1167 135.326 11.3C136.353 10.46 137.345 10.0167 138.301 9.97C138.535 10.04 138.791 10.18 139.071 10.39C139.375 10.6 139.655 10.845 139.911 11.125C140.191 11.405 140.425 11.6967 140.611 12C140.798 12.28 140.903 12.525 140.926 12.735C139.993 12.875 139.025 13.33 138.021 14.1C137.041 14.87 136.143 15.8033 135.326 16.9C134.533 17.9733 133.88 19.1283 133.366 20.365C132.853 21.6017 132.596 22.7567 132.596 23.83C132.596 24.2733 132.76 24.5533 133.086 24.67C133.763 24.53 134.545 23.9583 135.431 22.955C136.318 21.9283 137.391 20.3533 138.651 18.23C138.885 17.81 139.141 17.3433 139.421 16.83C139.725 16.3167 140.028 15.78 140.331 15.22C140.635 14.66 140.926 14.1 141.206 13.54C141.51 12.9567 141.79 12.3967 142.046 11.86Z" fill="#671DE0"/>
</svg>
